# xmcd CD database file
#
# Track frame offsets:
#	173
#	24661
#	42900
#	63141
#	86868
#	107136
#	123740
#	148253
#	171592
#	198055
#
# Disc length: 2783 seconds
#
# Revision: 0
# Processed by: cddbd v1.5.2PL0 Copyright (c) Steve Scherf et al.
# Submitted via: CDex 1.70beta2
#
DISCID=920add0a
DTITLE=Marina Trost - Closer
DYEAR=2010
DGENRE=Jazz
TTITLE0=Closer
TTITLE1=Watering Wasteland
TTITLE2=World Of Make - Believe
TTITLE3=Brother
TTITLE4=No Borderlines
TTITLE5=Love For Sale
TTITLE6=Let's Spend The Night Together
TTITLE7=If I Could
TTITLE8=Sometimes It Snows In April
TTITLE9=Open Heart
EXTD=YEAR: 2010
EXTT0=
EXTT1=
EXTT2=
EXTT3=
EXTT4=
EXTT5=
EXTT6=
EXTT7=
EXTT8=
EXTT9=
PLAYORDER=
